<svg xmlns="http://www.w3.org/2000/svg" xmlns:xlink="http://www.w3.org/1999/xlink" width="500" zoomAndPan="magnify" viewBox="0 0 375 374.999991" height="500" preserveAspectRatio="xMidYMid meet" version="1.0"><defs><clipPath id="89a377d7d9"><path d="M 56.25 0 L 318.75 0 C 333.667969 0 347.976562 5.925781 358.523438 16.476562 C 369.074219 27.023438 375 41.332031 375 56.25 L 375 318.75 C 375 349.816406 349.816406 375 318.75 375 L 56.25 375 C 41.332031 375 27.023438 369.074219 16.476562 358.523438 C 5.925781 347.976562 0 333.667969 0 318.75 L 0 56.25 C 0 25.183594 25.183594 0 56.25 0 Z M 56.25 0 " clip-rule="nonzero"/></clipPath><linearGradient x1="0" gradientTransform="matrix(1.464844, 0, 0, 1.464844, 0.0000045, 0)" y1="128" x2="255.999988" gradientUnits="userSpaceOnUse" y2="128" id="034fe5bf7d"><stop stop-opacity="1" stop-color="rgb(31.799316%, 43.899536%, 100%)" offset="0"/><stop stop-opacity="1" stop-color="rgb(32.064819%, 43.884277%, 99.908447%)" offset="0.00390625"/><stop stop-opacity="1" stop-color="rgb(32.331848%, 43.869019%, 99.81842%)" offset="0.0078125"/><stop stop-opacity="1" stop-color="rgb(32.597351%, 43.85376%, 99.728394%)" offset="0.0117188"/><stop stop-opacity="1" stop-color="rgb(32.86438%, 43.838501%, 99.638367%)" offset="0.015625"/><stop stop-opacity="1" stop-color="rgb(33.129883%, 43.823242%, 99.54834%)" offset="0.0195313"/><stop stop-opacity="1" stop-color="rgb(33.396912%, 43.807983%, 99.458313%)" offset="0.0234375"/><stop stop-opacity="1" stop-color="rgb(33.66394%, 43.792725%, 99.36676%)" offset="0.0273438"/><stop stop-opacity="1" stop-color="rgb(33.930969%, 43.777466%, 99.276733%)" offset="0.03125"/><stop stop-opacity="1" stop-color="rgb(34.196472%, 43.762207%, 99.186707%)" offset="0.0351562"/><stop stop-opacity="1" stop-color="rgb(34.463501%, 43.746948%, 99.09668%)" offset="0.0390625"/><stop stop-opacity="1" stop-color="rgb(34.729004%, 43.731689%, 99.006653%)" offset="0.0429688"/><stop stop-opacity="1" stop-color="rgb(34.996033%, 43.716431%, 98.916626%)" offset="0.046875"/><stop stop-opacity="1" stop-color="rgb(35.261536%, 43.701172%, 98.826599%)" offset="0.0507812"/><stop stop-opacity="1" stop-color="rgb(35.528564%, 43.685913%, 98.736572%)" offset="0.0546875"/><stop stop-opacity="1" stop-color="rgb(35.794067%, 43.670654%, 98.64502%)" offset="0.0585938"/><stop stop-opacity="1" stop-color="rgb(36.061096%, 43.655396%, 98.554993%)" offset="0.0625"/><stop stop-opacity="1" stop-color="rgb(36.328125%, 43.640137%, 98.464966%)" offset="0.0664062"/><stop stop-opacity="1" stop-color="rgb(36.595154%, 43.624878%, 98.374939%)" offset="0.0703125"/><stop stop-opacity="1" stop-color="rgb(36.860657%, 43.609619%, 98.284912%)" offset="0.0742188"/><stop stop-opacity="1" stop-color="rgb(37.127686%, 43.59436%, 98.194885%)" offset="0.078125"/><stop stop-opacity="1" stop-color="rgb(37.393188%, 43.579102%, 98.104858%)" offset="0.0820312"/><stop stop-opacity="1" stop-color="rgb(37.660217%, 43.563843%, 98.014832%)" offset="0.0859375"/><stop stop-opacity="1" stop-color="rgb(37.92572%, 43.548584%, 97.923279%)" offset="0.0898438"/><stop stop-opacity="1" stop-color="rgb(38.192749%, 43.533325%, 97.833252%)" offset="0.09375"/><stop stop-opacity="1" stop-color="rgb(38.458252%, 43.518066%, 97.743225%)" offset="0.0976562"/><stop stop-opacity="1" stop-color="rgb(38.725281%, 43.502808%, 97.653198%)" offset="0.101562"/><stop stop-opacity="1" stop-color="rgb(38.99231%, 43.487549%, 97.563171%)" offset="0.105469"/><stop stop-opacity="1" stop-color="rgb(39.259338%, 43.47229%, 97.473145%)" offset="0.109375"/><stop stop-opacity="1" stop-color="rgb(39.524841%, 43.457031%, 97.381592%)" offset="0.113281"/><stop stop-opacity="1" stop-color="rgb(39.79187%, 43.441772%, 97.291565%)" offset="0.117188"/><stop stop-opacity="1" stop-color="rgb(40.057373%, 43.426514%, 97.201538%)" offset="0.121094"/><stop stop-opacity="1" stop-color="rgb(40.324402%, 43.411255%, 97.111511%)" offset="0.125"/><stop stop-opacity="1" stop-color="rgb(40.589905%, 43.395996%, 97.021484%)" offset="0.128906"/><stop stop-opacity="1" stop-color="rgb(40.856934%, 43.380737%, 96.931458%)" offset="0.132812"/><stop stop-opacity="1" stop-color="rgb(41.122437%, 43.365479%, 96.841431%)" offset="0.136719"/><stop stop-opacity="1" stop-color="rgb(41.389465%, 43.35022%, 96.751404%)" offset="0.140625"/><stop stop-opacity="1" stop-color="rgb(41.654968%, 43.334961%, 96.659851%)" offset="0.144531"/><stop stop-opacity="1" stop-color="rgb(41.921997%, 43.319702%, 96.569824%)" offset="0.148438"/><stop stop-opacity="1" stop-color="rgb(42.189026%, 43.304443%, 96.479797%)" offset="0.152344"/><stop stop-opacity="1" stop-color="rgb(42.456055%, 43.289185%, 96.389771%)" offset="0.15625"/><stop stop-opacity="1" stop-color="rgb(42.721558%, 43.273926%, 96.299744%)" offset="0.160156"/><stop stop-opacity="1" stop-color="rgb(42.988586%, 43.258667%, 96.209717%)" offset="0.164062"/><stop stop-opacity="1" stop-color="rgb(43.254089%, 43.243408%, 96.11969%)" offset="0.167969"/><stop stop-opacity="1" stop-color="rgb(43.521118%, 43.229675%, 96.029663%)" offset="0.171875"/><stop stop-opacity="1" stop-color="rgb(43.786621%, 43.214417%, 95.93811%)" offset="0.175781"/><stop stop-opacity="1" stop-color="rgb(44.05365%, 43.199158%, 95.848083%)" offset="0.179688"/><stop stop-opacity="1" stop-color="rgb(44.319153%, 43.183899%, 95.758057%)" offset="0.183594"/><stop stop-opacity="1" stop-color="rgb(44.586182%, 43.16864%, 95.66803%)" offset="0.1875"/><stop stop-opacity="1" stop-color="rgb(44.85321%, 43.153381%, 95.578003%)" offset="0.191406"/><stop stop-opacity="1" stop-color="rgb(45.120239%, 43.138123%, 95.487976%)" offset="0.195312"/><stop stop-opacity="1" stop-color="rgb(45.385742%, 43.122864%, 95.396423%)" offset="0.199219"/><stop stop-opacity="1" stop-color="rgb(45.652771%, 43.107605%, 95.306396%)" offset="0.203125"/><stop stop-opacity="1" stop-color="rgb(45.918274%, 43.092346%, 95.21637%)" offset="0.207031"/><stop stop-opacity="1" stop-color="rgb(46.185303%, 43.077087%, 95.126343%)" offset="0.210938"/><stop stop-opacity="1" stop-color="rgb(46.450806%, 43.061829%, 95.036316%)" offset="0.214844"/><stop stop-opacity="1" stop-color="rgb(46.717834%, 43.04657%, 94.946289%)" offset="0.21875"/><stop stop-opacity="1" stop-color="rgb(46.983337%, 43.031311%, 94.856262%)" offset="0.222656"/><stop stop-opacity="1" stop-color="rgb(47.250366%, 43.016052%, 94.766235%)" offset="0.226562"/><stop stop-opacity="1" stop-color="rgb(47.515869%, 43.000793%, 94.674683%)" offset="0.230469"/><stop stop-opacity="1" stop-color="rgb(47.782898%, 42.985535%, 94.584656%)" offset="0.234375"/><stop stop-opacity="1" stop-color="rgb(48.049927%, 42.970276%, 94.494629%)" offset="0.238281"/><stop stop-opacity="1" stop-color="rgb(48.316956%, 42.955017%, 94.404602%)" offset="0.242188"/><stop stop-opacity="1" stop-color="rgb(48.582458%, 42.939758%, 94.314575%)" offset="0.246094"/><stop stop-opacity="1" stop-color="rgb(48.849487%, 42.9245%, 94.224548%)" offset="0.25"/><stop stop-opacity="1" stop-color="rgb(49.11499%, 42.909241%, 94.134521%)" offset="0.253906"/><stop stop-opacity="1" stop-color="rgb(49.382019%, 42.893982%, 94.044495%)" offset="0.257812"/><stop stop-opacity="1" stop-color="rgb(49.647522%, 42.878723%, 93.952942%)" offset="0.261719"/><stop stop-opacity="1" stop-color="rgb(49.914551%, 42.863464%, 93.862915%)" offset="0.265625"/><stop stop-opacity="1" stop-color="rgb(50.180054%, 42.848206%, 93.772888%)" offset="0.269531"/><stop stop-opacity="1" stop-color="rgb(50.447083%, 42.832947%, 93.682861%)" offset="0.273438"/><stop stop-opacity="1" stop-color="rgb(50.714111%, 42.817688%, 93.592834%)" offset="0.277344"/><stop stop-opacity="1" stop-color="rgb(50.98114%, 42.802429%, 93.502808%)" offset="0.28125"/><stop stop-opacity="1" stop-color="rgb(51.246643%, 42.78717%, 93.411255%)" offset="0.285156"/><stop stop-opacity="1" stop-color="rgb(51.513672%, 42.771912%, 93.321228%)" offset="0.289063"/><stop stop-opacity="1" stop-color="rgb(51.779175%, 42.756653%, 93.231201%)" offset="0.292969"/><stop stop-opacity="1" stop-color="rgb(52.046204%, 42.741394%, 93.141174%)" offset="0.296875"/><stop stop-opacity="1" stop-color="rgb(52.311707%, 42.726135%, 93.051147%)" offset="0.300781"/><stop stop-opacity="1" stop-color="rgb(52.578735%, 42.710876%, 92.961121%)" offset="0.304688"/><stop stop-opacity="1" stop-color="rgb(52.844238%, 42.695618%, 92.871094%)" offset="0.308594"/><stop stop-opacity="1" stop-color="rgb(53.111267%, 42.680359%, 92.781067%)" offset="0.3125"/><stop stop-opacity="1" stop-color="rgb(53.37677%, 42.6651%, 92.689514%)" offset="0.316406"/><stop stop-opacity="1" stop-color="rgb(53.643799%, 42.649841%, 92.599487%)" offset="0.320312"/><stop stop-opacity="1" stop-color="rgb(53.910828%, 42.634583%, 92.50946%)" offset="0.324219"/><stop stop-opacity="1" stop-color="rgb(54.177856%, 42.619324%, 92.419434%)" offset="0.328125"/><stop stop-opacity="1" stop-color="rgb(54.443359%, 42.604065%, 92.329407%)" offset="0.332031"/><stop stop-opacity="1" stop-color="rgb(54.710388%, 42.588806%, 92.23938%)" offset="0.335938"/><stop stop-opacity="1" stop-color="rgb(54.975891%, 42.573547%, 92.149353%)" offset="0.339844"/><stop stop-opacity="1" stop-color="rgb(55.24292%, 42.558289%, 92.059326%)" offset="0.34375"/><stop stop-opacity="1" stop-color="rgb(55.508423%, 42.54303%, 91.967773%)" offset="0.347656"/><stop stop-opacity="1" stop-color="rgb(55.775452%, 42.527771%, 91.877747%)" offset="0.351562"/><stop stop-opacity="1" stop-color="rgb(56.040955%, 42.512512%, 91.78772%)" offset="0.355469"/><stop stop-opacity="1" stop-color="rgb(56.307983%, 42.497253%, 91.697693%)" offset="0.359375"/><stop stop-opacity="1" stop-color="rgb(56.575012%, 42.481995%, 91.607666%)" offset="0.363281"/><stop stop-opacity="1" stop-color="rgb(56.842041%, 42.466736%, 91.517639%)" offset="0.367188"/><stop stop-opacity="1" stop-color="rgb(57.107544%, 42.451477%, 91.426086%)" offset="0.371094"/><stop stop-opacity="1" stop-color="rgb(57.374573%, 42.436218%, 91.33606%)" offset="0.375"/><stop stop-opacity="1" stop-color="rgb(57.640076%, 42.420959%, 91.246033%)" offset="0.378906"/><stop stop-opacity="1" stop-color="rgb(57.907104%, 42.405701%, 91.156006%)" offset="0.382812"/><stop stop-opacity="1" stop-color="rgb(58.172607%, 42.390442%, 91.065979%)" offset="0.386719"/><stop stop-opacity="1" stop-color="rgb(58.439636%, 42.375183%, 90.975952%)" offset="0.390625"/><stop stop-opacity="1" stop-color="rgb(58.705139%, 42.359924%, 90.885925%)" offset="0.394531"/><stop stop-opacity="1" stop-color="rgb(58.972168%, 42.344666%, 90.795898%)" offset="0.398438"/><stop stop-opacity="1" stop-color="rgb(59.239197%, 42.329407%, 90.704346%)" offset="0.402344"/><stop stop-opacity="1" stop-color="rgb(59.506226%, 42.314148%, 90.614319%)" offset="0.40625"/><stop stop-opacity="1" stop-color="rgb(59.771729%, 42.298889%, 90.524292%)" offset="0.410156"/><stop stop-opacity="1" stop-color="rgb(60.038757%, 42.285156%, 90.434265%)" offset="0.414062"/><stop stop-opacity="1" stop-color="rgb(60.30426%, 42.269897%, 90.344238%)" offset="0.417969"/><stop stop-opacity="1" stop-color="rgb(60.571289%, 42.254639%, 90.254211%)" offset="0.421875"/><stop stop-opacity="1" stop-color="rgb(60.836792%, 42.23938%, 90.164185%)" offset="0.425781"/><stop stop-opacity="1" stop-color="rgb(61.103821%, 42.224121%, 90.074158%)" offset="0.429688"/><stop stop-opacity="1" stop-color="rgb(61.369324%, 42.208862%, 89.982605%)" offset="0.433594"/><stop stop-opacity="1" stop-color="rgb(61.636353%, 42.193604%, 89.892578%)" offset="0.4375"/><stop stop-opacity="1" stop-color="rgb(61.901855%, 42.178345%, 89.802551%)" offset="0.441406"/><stop stop-opacity="1" stop-color="rgb(62.168884%, 42.163086%, 89.712524%)" offset="0.445312"/><stop stop-opacity="1" stop-color="rgb(62.435913%, 42.147827%, 89.622498%)" offset="0.449219"/><stop stop-opacity="1" stop-color="rgb(62.702942%, 42.132568%, 89.532471%)" offset="0.453125"/><stop stop-opacity="1" stop-color="rgb(62.968445%, 42.11731%, 89.440918%)" offset="0.457031"/><stop stop-opacity="1" stop-color="rgb(63.235474%, 42.102051%, 89.350891%)" offset="0.460938"/><stop stop-opacity="1" stop-color="rgb(63.500977%, 42.086792%, 89.260864%)" offset="0.464844"/><stop stop-opacity="1" stop-color="rgb(63.768005%, 42.071533%, 89.170837%)" offset="0.46875"/><stop stop-opacity="1" stop-color="rgb(64.033508%, 42.056274%, 89.080811%)" offset="0.472656"/><stop stop-opacity="1" stop-color="rgb(64.300537%, 42.041016%, 88.990784%)" offset="0.476562"/><stop stop-opacity="1" stop-color="rgb(64.56604%, 42.025757%, 88.900757%)" offset="0.480469"/><stop stop-opacity="1" stop-color="rgb(64.833069%, 42.010498%, 88.81073%)" offset="0.484375"/><stop stop-opacity="1" stop-color="rgb(65.100098%, 41.995239%, 88.719177%)" offset="0.488281"/><stop stop-opacity="1" stop-color="rgb(65.367126%, 41.97998%, 88.62915%)" offset="0.492188"/><stop stop-opacity="1" stop-color="rgb(65.632629%, 41.964722%, 88.539124%)" offset="0.496094"/><stop stop-opacity="1" stop-color="rgb(65.899658%, 41.949463%, 88.449097%)" offset="0.5"/><stop stop-opacity="1" stop-color="rgb(66.165161%, 41.934204%, 88.35907%)" offset="0.503906"/><stop stop-opacity="1" stop-color="rgb(66.43219%, 41.918945%, 88.269043%)" offset="0.507812"/><stop stop-opacity="1" stop-color="rgb(66.697693%, 41.903687%, 88.179016%)" offset="0.511719"/><stop stop-opacity="1" stop-color="rgb(66.964722%, 41.888428%, 88.088989%)" offset="0.515625"/><stop stop-opacity="1" stop-color="rgb(67.230225%, 41.873169%, 87.997437%)" offset="0.519531"/><stop stop-opacity="1" stop-color="rgb(67.497253%, 41.85791%, 87.90741%)" offset="0.523438"/><stop stop-opacity="1" stop-color="rgb(67.762756%, 41.842651%, 87.817383%)" offset="0.527344"/><stop stop-opacity="1" stop-color="rgb(68.029785%, 41.827393%, 87.727356%)" offset="0.53125"/><stop stop-opacity="1" stop-color="rgb(68.296814%, 41.812134%, 87.637329%)" offset="0.535156"/><stop stop-opacity="1" stop-color="rgb(68.563843%, 41.796875%, 87.547302%)" offset="0.539062"/><stop stop-opacity="1" stop-color="rgb(68.829346%, 41.781616%, 87.45575%)" offset="0.542969"/><stop stop-opacity="1" stop-color="rgb(69.096375%, 41.766357%, 87.365723%)" offset="0.546875"/><stop stop-opacity="1" stop-color="rgb(69.361877%, 41.751099%, 87.275696%)" offset="0.550781"/><stop stop-opacity="1" stop-color="rgb(69.628906%, 41.73584%, 87.185669%)" offset="0.554688"/><stop stop-opacity="1" stop-color="rgb(69.894409%, 41.720581%, 87.095642%)" offset="0.558594"/><stop stop-opacity="1" stop-color="rgb(70.161438%, 41.705322%, 87.005615%)" offset="0.5625"/><stop stop-opacity="1" stop-color="rgb(70.426941%, 41.690063%, 86.915588%)" offset="0.566406"/><stop stop-opacity="1" stop-color="rgb(70.69397%, 41.674805%, 86.825562%)" offset="0.570312"/><stop stop-opacity="1" stop-color="rgb(70.960999%, 41.659546%, 86.734009%)" offset="0.574219"/><stop stop-opacity="1" stop-color="rgb(71.228027%, 41.644287%, 86.643982%)" offset="0.578125"/><stop stop-opacity="1" stop-color="rgb(71.49353%, 41.629028%, 86.553955%)" offset="0.582031"/><stop stop-opacity="1" stop-color="rgb(71.760559%, 41.61377%, 86.463928%)" offset="0.585938"/><stop stop-opacity="1" stop-color="rgb(72.026062%, 41.598511%, 86.373901%)" offset="0.589844"/><stop stop-opacity="1" stop-color="rgb(72.293091%, 41.583252%, 86.283875%)" offset="0.59375"/><stop stop-opacity="1" stop-color="rgb(72.558594%, 41.567993%, 86.193848%)" offset="0.597656"/><stop stop-opacity="1" stop-color="rgb(72.825623%, 41.552734%, 86.103821%)" offset="0.601563"/><stop stop-opacity="1" stop-color="rgb(73.091125%, 41.537476%, 86.012268%)" offset="0.605469"/><stop stop-opacity="1" stop-color="rgb(73.358154%, 41.522217%, 85.922241%)" offset="0.609375"/><stop stop-opacity="1" stop-color="rgb(73.623657%, 41.506958%, 85.832214%)" offset="0.613281"/><stop stop-opacity="1" stop-color="rgb(73.890686%, 41.491699%, 85.742188%)" offset="0.617188"/><stop stop-opacity="1" stop-color="rgb(74.157715%, 41.47644%, 85.652161%)" offset="0.621094"/><stop stop-opacity="1" stop-color="rgb(74.424744%, 41.461182%, 85.562134%)" offset="0.625"/><stop stop-opacity="1" stop-color="rgb(74.690247%, 41.445923%, 85.470581%)" offset="0.628906"/><stop stop-opacity="1" stop-color="rgb(74.957275%, 41.430664%, 85.380554%)" offset="0.632812"/><stop stop-opacity="1" stop-color="rgb(75.222778%, 41.415405%, 85.290527%)" offset="0.636719"/><stop stop-opacity="1" stop-color="rgb(75.489807%, 41.400146%, 85.2005%)" offset="0.640625"/><stop stop-opacity="1" stop-color="rgb(75.75531%, 41.384888%, 85.110474%)" offset="0.644531"/><stop stop-opacity="1" stop-color="rgb(76.022339%, 41.369629%, 85.020447%)" offset="0.648438"/><stop stop-opacity="1" stop-color="rgb(76.287842%, 41.35437%, 84.93042%)" offset="0.652344"/><stop stop-opacity="1" stop-color="rgb(76.554871%, 41.339111%, 84.840393%)" offset="0.65625"/><stop stop-opacity="1" stop-color="rgb(76.821899%, 41.323853%, 84.74884%)" offset="0.660156"/><stop stop-opacity="1" stop-color="rgb(77.088928%, 41.31012%, 84.658813%)" offset="0.664063"/><stop stop-opacity="1" stop-color="rgb(77.354431%, 41.294861%, 84.568787%)" offset="0.667969"/><stop stop-opacity="1" stop-color="rgb(77.62146%, 41.279602%, 84.47876%)" offset="0.671875"/><stop stop-opacity="1" stop-color="rgb(77.886963%, 41.264343%, 84.388733%)" offset="0.675781"/><stop stop-opacity="1" stop-color="rgb(78.153992%, 41.249084%, 84.298706%)" offset="0.679688"/><stop stop-opacity="1" stop-color="rgb(78.419495%, 41.233826%, 84.208679%)" offset="0.683594"/><stop stop-opacity="1" stop-color="rgb(78.686523%, 41.218567%, 84.118652%)" offset="0.6875"/><stop stop-opacity="1" stop-color="rgb(78.952026%, 41.203308%, 84.0271%)" offset="0.691406"/><stop stop-opacity="1" stop-color="rgb(79.219055%, 41.188049%, 83.937073%)" offset="0.695313"/><stop stop-opacity="1" stop-color="rgb(79.486084%, 41.172791%, 83.847046%)" offset="0.699219"/><stop stop-opacity="1" stop-color="rgb(79.753113%, 41.157532%, 83.757019%)" offset="0.703125"/><stop stop-opacity="1" stop-color="rgb(80.018616%, 41.142273%, 83.666992%)" offset="0.707031"/><stop stop-opacity="1" stop-color="rgb(80.285645%, 41.127014%, 83.576965%)" offset="0.710938"/><stop stop-opacity="1" stop-color="rgb(80.551147%, 41.111755%, 83.485413%)" offset="0.714844"/><stop stop-opacity="1" stop-color="rgb(80.818176%, 41.096497%, 83.395386%)" offset="0.71875"/><stop stop-opacity="1" stop-color="rgb(81.083679%, 41.081238%, 83.305359%)" offset="0.722656"/><stop stop-opacity="1" stop-color="rgb(81.350708%, 41.065979%, 83.215332%)" offset="0.726562"/><stop stop-opacity="1" stop-color="rgb(81.616211%, 41.05072%, 83.125305%)" offset="0.730469"/><stop stop-opacity="1" stop-color="rgb(81.88324%, 41.035461%, 83.035278%)" offset="0.734375"/><stop stop-opacity="1" stop-color="rgb(82.148743%, 41.020203%, 82.945251%)" offset="0.738281"/><stop stop-opacity="1" stop-color="rgb(82.415771%, 41.004944%, 82.855225%)" offset="0.742188"/><stop stop-opacity="1" stop-color="rgb(82.6828%, 40.989685%, 82.763672%)" offset="0.746094"/><stop stop-opacity="1" stop-color="rgb(82.949829%, 40.974426%, 82.673645%)" offset="0.75"/><stop stop-opacity="1" stop-color="rgb(83.215332%, 40.959167%, 82.583618%)" offset="0.753906"/><stop stop-opacity="1" stop-color="rgb(83.482361%, 40.943909%, 82.493591%)" offset="0.757812"/><stop stop-opacity="1" stop-color="rgb(83.747864%, 40.92865%, 82.403564%)" offset="0.761719"/><stop stop-opacity="1" stop-color="rgb(84.014893%, 40.913391%, 82.313538%)" offset="0.765625"/><stop stop-opacity="1" stop-color="rgb(84.280396%, 40.898132%, 82.223511%)" offset="0.769531"/><stop stop-opacity="1" stop-color="rgb(84.547424%, 40.882874%, 82.133484%)" offset="0.773438"/><stop stop-opacity="1" stop-color="rgb(84.812927%, 40.867615%, 82.041931%)" offset="0.777344"/><stop stop-opacity="1" stop-color="rgb(85.079956%, 40.852356%, 81.951904%)" offset="0.78125"/><stop stop-opacity="1" stop-color="rgb(85.346985%, 40.837097%, 81.861877%)" offset="0.785156"/><stop stop-opacity="1" stop-color="rgb(85.614014%, 40.821838%, 81.771851%)" offset="0.789062"/><stop stop-opacity="1" stop-color="rgb(85.879517%, 40.80658%, 81.681824%)" offset="0.792969"/><stop stop-opacity="1" stop-color="rgb(86.146545%, 40.791321%, 81.591797%)" offset="0.796875"/><stop stop-opacity="1" stop-color="rgb(86.412048%, 40.776062%, 81.500244%)" offset="0.800781"/><stop stop-opacity="1" stop-color="rgb(86.679077%, 40.760803%, 81.410217%)" offset="0.804688"/><stop stop-opacity="1" stop-color="rgb(86.94458%, 40.745544%, 81.32019%)" offset="0.808594"/><stop stop-opacity="1" stop-color="rgb(87.211609%, 40.730286%, 81.230164%)" offset="0.8125"/><stop stop-opacity="1" stop-color="rgb(87.477112%, 40.715027%, 81.140137%)" offset="0.816406"/><stop stop-opacity="1" stop-color="rgb(87.744141%, 40.699768%, 81.05011%)" offset="0.820313"/><stop stop-opacity="1" stop-color="rgb(88.009644%, 40.684509%, 80.960083%)" offset="0.824219"/><stop stop-opacity="1" stop-color="rgb(88.276672%, 40.66925%, 80.870056%)" offset="0.828125"/><stop stop-opacity="1" stop-color="rgb(88.543701%, 40.653992%, 80.778503%)" offset="0.832031"/><stop stop-opacity="1" stop-color="rgb(88.81073%, 40.638733%, 80.688477%)" offset="0.835938"/><stop stop-opacity="1" stop-color="rgb(89.076233%, 40.623474%, 80.59845%)" offset="0.839844"/><stop stop-opacity="1" stop-color="rgb(89.343262%, 40.608215%, 80.508423%)" offset="0.84375"/><stop stop-opacity="1" stop-color="rgb(89.608765%, 40.592957%, 80.418396%)" offset="0.847656"/><stop stop-opacity="1" stop-color="rgb(89.875793%, 40.577698%, 80.328369%)" offset="0.851562"/><stop stop-opacity="1" stop-color="rgb(90.141296%, 40.562439%, 80.238342%)" offset="0.855469"/><stop stop-opacity="1" stop-color="rgb(90.408325%, 40.54718%, 80.148315%)" offset="0.859375"/><stop stop-opacity="1" stop-color="rgb(90.673828%, 40.531921%, 80.056763%)" offset="0.863281"/><stop stop-opacity="1" stop-color="rgb(90.940857%, 40.516663%, 79.966736%)" offset="0.867188"/><stop stop-opacity="1" stop-color="rgb(91.207886%, 40.501404%, 79.876709%)" offset="0.871094"/><stop stop-opacity="1" stop-color="rgb(91.474915%, 40.486145%, 79.786682%)" offset="0.875"/><stop stop-opacity="1" stop-color="rgb(91.740417%, 40.470886%, 79.696655%)" offset="0.878906"/><stop stop-opacity="1" stop-color="rgb(92.007446%, 40.455627%, 79.606628%)" offset="0.882812"/><stop stop-opacity="1" stop-color="rgb(92.272949%, 40.440369%, 79.515076%)" offset="0.886719"/><stop stop-opacity="1" stop-color="rgb(92.539978%, 40.42511%, 79.425049%)" offset="0.890625"/><stop stop-opacity="1" stop-color="rgb(92.805481%, 40.409851%, 79.335022%)" offset="0.894531"/><stop stop-opacity="1" stop-color="rgb(93.07251%, 40.394592%, 79.244995%)" offset="0.898438"/><stop stop-opacity="1" stop-color="rgb(93.338013%, 40.379333%, 79.154968%)" offset="0.902344"/><stop stop-opacity="1" stop-color="rgb(93.605042%, 40.365601%, 79.064941%)" offset="0.90625"/><stop stop-opacity="1" stop-color="rgb(93.870544%, 40.350342%, 78.974915%)" offset="0.910156"/><stop stop-opacity="1" stop-color="rgb(94.137573%, 40.335083%, 78.884888%)" offset="0.914062"/><stop stop-opacity="1" stop-color="rgb(94.404602%, 40.319824%, 78.793335%)" offset="0.917969"/><stop stop-opacity="1" stop-color="rgb(94.671631%, 40.304565%, 78.703308%)" offset="0.921875"/><stop stop-opacity="1" stop-color="rgb(94.937134%, 40.289307%, 78.613281%)" offset="0.925781"/><stop stop-opacity="1" stop-color="rgb(95.204163%, 40.274048%, 78.523254%)" offset="0.929688"/><stop stop-opacity="1" stop-color="rgb(95.469666%, 40.258789%, 78.433228%)" offset="0.933594"/><stop stop-opacity="1" stop-color="rgb(95.736694%, 40.24353%, 78.343201%)" offset="0.9375"/><stop stop-opacity="1" stop-color="rgb(96.002197%, 40.228271%, 78.253174%)" offset="0.941406"/><stop stop-opacity="1" stop-color="rgb(96.269226%, 40.213013%, 78.163147%)" offset="0.945312"/><stop stop-opacity="1" stop-color="rgb(96.534729%, 40.197754%, 78.071594%)" offset="0.949219"/><stop stop-opacity="1" stop-color="rgb(96.801758%, 40.182495%, 77.981567%)" offset="0.953125"/><stop stop-opacity="1" stop-color="rgb(97.068787%, 40.167236%, 77.891541%)" offset="0.957031"/><stop stop-opacity="1" stop-color="rgb(97.335815%, 40.151978%, 77.801514%)" offset="0.960938"/><stop stop-opacity="1" stop-color="rgb(97.601318%, 40.136719%, 77.711487%)" offset="0.964844"/><stop stop-opacity="1" stop-color="rgb(97.868347%, 40.12146%, 77.62146%)" offset="0.96875"/><stop stop-opacity="1" stop-color="rgb(98.13385%, 40.106201%, 77.531433%)" offset="0.972656"/><stop stop-opacity="1" stop-color="rgb(98.400879%, 40.090942%, 77.441406%)" offset="0.976562"/><stop stop-opacity="1" stop-color="rgb(98.666382%, 40.075684%, 77.349854%)" offset="0.980469"/><stop stop-opacity="1" stop-color="rgb(98.933411%, 40.060425%, 77.259827%)" offset="0.984375"/><stop stop-opacity="1" stop-color="rgb(99.198914%, 40.045166%, 77.1698%)" offset="0.988281"/><stop stop-opacity="1" stop-color="rgb(99.465942%, 40.029907%, 77.079773%)" offset="0.992188"/><stop stop-opacity="1" stop-color="rgb(99.731445%, 40.014648%, 76.989746%)" offset="0.996094"/><stop stop-opacity="1" stop-color="rgb(99.998474%, 39.99939%, 76.899719%)" offset="1"/></linearGradient><clipPath id="e2701f0416"><path d="M 158 158 L 217 158 L 217 217 L 158 217 Z M 158 158 " clip-rule="nonzero"/></clipPath><clipPath id="f7f30844af"><path d="M 96.183594 -0.175781 L 378.089844 102.429688 L 278.816406 375.175781 L -3.089844 272.570312 Z M 96.183594 -0.175781 " clip-rule="nonzero"/></clipPath><clipPath id="b215bcf528"><path d="M 96.183594 -0.175781 L 378.089844 102.429688 L 278.816406 375.175781 L -3.089844 272.570312 Z M 96.183594 -0.175781 " clip-rule="nonzero"/></clipPath><clipPath id="352f4073e9"><path d="M 98 266 L 141 266 L 141 309 L 98 309 Z M 98 266 " clip-rule="nonzero"/></clipPath><clipPath id="58953dff7a"><path d="M 96.183594 -0.175781 L 378.089844 102.429688 L 278.816406 375.175781 L -3.089844 272.570312 Z M 96.183594 -0.175781 " clip-rule="nonzero"/></clipPath><clipPath id="0382292168"><path d="M 96.183594 -0.175781 L 378.089844 102.429688 L 278.816406 375.175781 L -3.089844 272.570312 Z M 96.183594 -0.175781 " clip-rule="nonzero"/></clipPath><clipPath id="99d4de718c"><path d="M 59 103 L 102 103 L 102 146 L 59 146 Z M 59 103 " clip-rule="nonzero"/></clipPath><clipPath id="56797e3490"><path d="M 96.183594 -0.175781 L 378.089844 102.429688 L 278.816406 375.175781 L -3.089844 272.570312 Z M 96.183594 -0.175781 " clip-rule="nonzero"/></clipPath><clipPath id="695530fb78"><path d="M 96.183594 -0.175781 L 378.089844 102.429688 L 278.816406 375.175781 L -3.089844 272.570312 Z M 96.183594 -0.175781 " clip-rule="nonzero"/></clipPath><clipPath id="c4656aa0b6"><path d="M 302 122 L 345 122 L 345 165 L 302 165 Z M 302 122 " clip-rule="nonzero"/></clipPath><clipPath id="df54d8755b"><path d="M 96.183594 -0.175781 L 378.089844 102.429688 L 278.816406 375.175781 L -3.089844 272.570312 Z M 96.183594 -0.175781 " clip-rule="nonzero"/></clipPath><clipPath id="8220ff95e5"><path d="M 96.183594 -0.175781 L 378.089844 102.429688 L 278.816406 375.175781 L -3.089844 272.570312 Z M 96.183594 -0.175781 " clip-rule="nonzero"/></clipPath><clipPath id="f66debe15d"><path d="M 28 49 L 347 49 L 347 326 L 28 326 Z M 28 49 " clip-rule="nonzero"/></clipPath><clipPath id="fe400d5185"><path d="M 96.183594 -0.175781 L 378.089844 102.429688 L 278.816406 375.175781 L -3.089844 272.570312 Z M 96.183594 -0.175781 " clip-rule="nonzero"/></clipPath><clipPath id="0c8a7507fc"><path d="M 96.183594 -0.175781 L 378.089844 102.429688 L 278.816406 375.175781 L -3.089844 272.570312 Z M 96.183594 -0.175781 " clip-rule="nonzero"/></clipPath></defs><g clip-path="url(#89a377d7d9)"><rect x="-37.5" fill="url(#034fe5bf7d)" width="450" y="-37.499999" height="449.999989"/></g><g clip-path="url(#e2701f0416)"><g clip-path="url(#f7f30844af)"><g clip-path="url(#b215bcf528)"><path fill="#ffffff" d="M 214.710938 197.382812 C 214.386719 198.273438 214.019531 199.148438 213.609375 200.003906 C 213.199219 200.859375 212.746094 201.691406 212.253906 202.503906 C 211.761719 203.316406 211.230469 204.101562 210.660156 204.859375 C 210.089844 205.621094 209.488281 206.347656 208.84375 207.046875 C 208.203125 207.75 207.53125 208.414062 206.824219 209.046875 C 206.117188 209.683594 205.378906 210.277344 204.617188 210.839844 C 203.851562 211.402344 203.058594 211.921875 202.242188 212.40625 C 201.425781 212.890625 200.585938 213.332031 199.726562 213.734375 C 198.867188 214.136719 197.988281 214.492188 197.09375 214.808594 C 196.199219 215.121094 195.289062 215.394531 194.367188 215.617188 C 193.445312 215.84375 192.515625 216.023438 191.574219 216.160156 C 190.636719 216.292969 189.691406 216.378906 188.746094 216.421875 C 187.796875 216.464844 186.847656 216.457031 185.902344 216.40625 C 184.953125 216.355469 184.011719 216.257812 183.070312 216.113281 C 182.132812 215.96875 181.207031 215.777344 180.285156 215.542969 C 179.367188 215.304688 178.460938 215.027344 177.570312 214.703125 C 176.675781 214.378906 175.804688 214.007812 174.949219 213.597656 C 174.09375 213.1875 173.257812 212.738281 172.445312 212.246094 C 171.636719 211.753906 170.851562 211.222656 170.089844 210.652344 C 169.332031 210.082031 168.601562 209.476562 167.902344 208.835938 C 167.203125 208.195312 166.535156 207.519531 165.902344 206.8125 C 165.269531 206.109375 164.671875 205.371094 164.109375 204.605469 C 163.550781 203.839844 163.027344 203.050781 162.542969 202.234375 C 162.058594 201.417969 161.617188 200.578125 161.21875 199.71875 C 160.816406 198.859375 160.457031 197.980469 160.144531 197.085938 C 159.828125 196.1875 159.558594 195.28125 159.332031 194.359375 C 159.105469 193.4375 158.925781 192.507812 158.792969 191.566406 C 158.660156 190.625 158.570312 189.683594 158.53125 188.734375 C 158.488281 187.785156 158.492188 186.839844 158.546875 185.890625 C 158.597656 184.945312 158.695312 184 158.839844 183.0625 C 158.984375 182.125 159.171875 181.195312 159.410156 180.277344 C 159.644531 179.355469 159.925781 178.453125 160.25 177.558594 C 160.574219 176.667969 160.941406 175.792969 161.351562 174.9375 C 161.761719 174.082031 162.214844 173.25 162.707031 172.4375 C 163.199219 171.625 163.730469 170.839844 164.300781 170.082031 C 164.867188 169.324219 165.472656 168.59375 166.113281 167.894531 C 166.757812 167.195312 167.429688 166.527344 168.136719 165.894531 C 168.84375 165.261719 169.578125 164.664062 170.34375 164.101562 C 171.109375 163.539062 171.902344 163.019531 172.71875 162.535156 C 173.535156 162.050781 174.375 161.609375 175.234375 161.207031 C 176.09375 160.804688 176.972656 160.449219 177.867188 160.132812 C 178.761719 159.820312 179.671875 159.546875 180.59375 159.324219 C 181.515625 159.097656 182.445312 158.917969 183.382812 158.785156 C 184.324219 158.648438 185.269531 158.5625 186.214844 158.519531 C 187.164062 158.480469 188.113281 158.484375 189.058594 158.535156 C 190.007812 158.585938 190.949219 158.683594 191.886719 158.828125 C 192.828125 158.972656 193.753906 159.164062 194.675781 159.398438 C 195.59375 159.636719 196.5 159.914062 197.390625 160.238281 C 198.28125 160.566406 199.15625 160.933594 200.011719 161.34375 C 200.867188 161.753906 201.703125 162.203125 202.511719 162.695312 C 203.324219 163.1875 204.109375 163.71875 204.871094 164.289062 C 205.628906 164.859375 206.359375 165.464844 207.058594 166.105469 C 207.757812 166.746094 208.425781 167.421875 209.058594 168.128906 C 209.691406 168.835938 210.289062 169.570312 210.847656 170.335938 C 211.410156 171.101562 211.933594 171.890625 212.417969 172.707031 C 212.898438 173.527344 213.34375 174.363281 213.742188 175.222656 C 214.144531 176.085938 214.503906 176.960938 214.816406 177.855469 C 215.132812 178.753906 215.402344 179.660156 215.628906 180.582031 C 215.855469 181.503906 216.035156 182.4375 216.167969 183.375 C 216.300781 184.316406 216.390625 185.257812 216.429688 186.207031 C 216.472656 187.15625 216.46875 188.101562 216.414062 189.050781 C 216.363281 190 216.265625 190.941406 216.121094 191.878906 C 215.976562 192.816406 215.785156 193.746094 215.550781 194.664062 C 215.316406 195.585938 215.035156 196.488281 214.710938 197.382812 Z M 214.710938 197.382812 " fill-opacity="1" fill-rule="nonzero"/></g></g></g><g clip-path="url(#352f4073e9)"><g clip-path="url(#58953dff7a)"><g clip-path="url(#0382292168)"><path fill="#ffffff" d="M 139.15625 294.882812 C 138.921875 295.527344 138.65625 296.160156 138.359375 296.777344 C 138.0625 297.394531 137.738281 297.996094 137.382812 298.582031 C 137.027344 299.167969 136.640625 299.734375 136.230469 300.285156 C 135.820312 300.832031 135.382812 301.359375 134.917969 301.863281 C 134.457031 302.367188 133.96875 302.851562 133.460938 303.308594 C 132.949219 303.765625 132.417969 304.195312 131.867188 304.601562 C 131.3125 305.007812 130.742188 305.382812 130.152344 305.734375 C 129.5625 306.082031 128.957031 306.402344 128.335938 306.691406 C 127.714844 306.980469 127.082031 307.238281 126.433594 307.464844 C 125.789062 307.695312 125.132812 307.886719 124.46875 308.050781 C 123.800781 308.214844 123.128906 308.34375 122.449219 308.441406 C 121.773438 308.539062 121.089844 308.601562 120.40625 308.632812 C 119.722656 308.660156 119.039062 308.65625 118.351562 308.621094 C 117.667969 308.582031 116.988281 308.511719 116.3125 308.40625 C 115.632812 308.304688 114.964844 308.167969 114.300781 307.996094 C 113.636719 307.824219 112.980469 307.625 112.335938 307.390625 C 111.695312 307.15625 111.0625 306.890625 110.445312 306.59375 C 109.828125 306.296875 109.226562 305.972656 108.640625 305.617188 C 108.054688 305.261719 107.488281 304.875 106.9375 304.464844 C 106.390625 304.054688 105.863281 303.617188 105.359375 303.152344 C 104.851562 302.691406 104.371094 302.203125 103.914062 301.695312 C 103.457031 301.183594 103.027344 300.652344 102.621094 300.101562 C 102.214844 299.546875 101.839844 298.976562 101.488281 298.386719 C 101.140625 297.796875 100.820312 297.191406 100.53125 296.570312 C 100.242188 295.949219 99.984375 295.316406 99.757812 294.667969 C 99.527344 294.023438 99.332031 293.367188 99.171875 292.703125 C 99.007812 292.035156 98.878906 291.363281 98.78125 290.683594 C 98.683594 290.007812 98.621094 289.324219 98.589844 288.640625 C 98.5625 287.957031 98.566406 287.273438 98.601562 286.585938 C 98.640625 285.902344 98.710938 285.222656 98.816406 284.546875 C 98.917969 283.867188 99.054688 283.199219 99.226562 282.535156 C 99.394531 281.871094 99.597656 281.214844 99.832031 280.570312 C 100.066406 279.929688 100.332031 279.296875 100.628906 278.679688 C 100.925781 278.0625 101.25 277.460938 101.605469 276.875 C 101.960938 276.289062 102.34375 275.722656 102.757812 275.171875 C 103.167969 274.625 103.605469 274.097656 104.066406 273.59375 C 104.53125 273.085938 105.015625 272.605469 105.527344 272.148438 C 106.039062 271.691406 106.570312 271.261719 107.121094 270.855469 C 107.675781 270.449219 108.246094 270.074219 108.835938 269.722656 C 109.425781 269.375 110.03125 269.054688 110.652344 268.765625 C 111.273438 268.476562 111.90625 268.21875 112.550781 267.988281 C 113.199219 267.761719 113.855469 267.566406 114.519531 267.40625 C 115.1875 267.242188 115.859375 267.113281 116.535156 267.015625 C 117.214844 266.917969 117.898438 266.855469 118.582031 266.824219 C 119.265625 266.796875 119.949219 266.800781 120.632812 266.835938 C 121.320312 266.875 122 266.945312 122.675781 267.046875 C 123.355469 267.152344 124.023438 267.289062 124.6875 267.460938 C 125.351562 267.628906 126.007812 267.832031 126.648438 268.066406 C 127.292969 268.300781 127.925781 268.566406 128.542969 268.863281 C 129.160156 269.160156 129.761719 269.484375 130.347656 269.839844 C 130.933594 270.195312 131.5 270.578125 132.050781 270.992188 C 132.597656 271.402344 133.125 271.839844 133.628906 272.300781 C 134.132812 272.765625 134.617188 273.25 135.074219 273.761719 C 135.53125 274.273438 135.960938 274.804688 136.367188 275.355469 C 136.773438 275.910156 137.148438 276.480469 137.5 277.070312 C 137.847656 277.660156 138.167969 278.265625 138.457031 278.886719 C 138.746094 279.507812 139.003906 280.140625 139.230469 280.785156 C 139.460938 281.433594 139.65625 282.089844 139.816406 282.753906 C 139.980469 283.421875 140.109375 284.09375 140.207031 284.769531 C 140.304688 285.449219 140.367188 286.132812 140.398438 286.816406 C 140.425781 287.5 140.421875 288.183594 140.386719 288.867188 C 140.347656 289.554688 140.277344 290.234375 140.171875 290.910156 C 140.070312 291.589844 139.933594 292.257812 139.761719 292.921875 C 139.589844 293.585938 139.390625 294.242188 139.15625 294.882812 Z M 139.15625 294.882812 " fill-opacity="1" fill-rule="nonzero"/></g></g></g><g clip-path="url(#99d4de718c)"><g clip-path="url(#56797e3490)"><g clip-path="url(#695530fb78)"><path fill="#ffffff" d="M 100.238281 131.738281 C 100.003906 132.382812 99.738281 133.011719 99.441406 133.628906 C 99.144531 134.246094 98.820312 134.851562 98.464844 135.433594 C 98.109375 136.019531 97.722656 136.589844 97.3125 137.136719 C 96.902344 137.683594 96.464844 138.210938 96 138.714844 C 95.539062 139.222656 95.050781 139.703125 94.542969 140.160156 C 94.03125 140.617188 93.5 141.050781 92.949219 141.453125 C 92.394531 141.859375 91.824219 142.238281 91.234375 142.585938 C 90.644531 142.933594 90.039062 143.253906 89.417969 143.542969 C 88.796875 143.832031 88.164062 144.09375 87.515625 144.320312 C 86.871094 144.546875 86.214844 144.742188 85.546875 144.90625 C 84.882812 145.066406 84.210938 145.199219 83.53125 145.292969 C 82.855469 145.390625 82.171875 145.453125 81.488281 145.484375 C 80.804688 145.515625 80.121094 145.511719 79.433594 145.472656 C 78.75 145.4375 78.070312 145.363281 77.394531 145.261719 C 76.714844 145.15625 76.046875 145.019531 75.382812 144.847656 C 74.71875 144.679688 74.0625 144.476562 73.417969 144.242188 C 72.777344 144.007812 72.144531 143.742188 71.527344 143.445312 C 70.910156 143.148438 70.308594 142.824219 69.722656 142.46875 C 69.136719 142.113281 68.570312 141.730469 68.019531 141.320312 C 67.472656 140.90625 66.945312 140.46875 66.441406 140.007812 C 65.933594 139.542969 65.453125 139.058594 64.996094 138.546875 C 64.539062 138.039062 64.109375 137.503906 63.703125 136.953125 C 63.296875 136.402344 62.921875 135.828125 62.570312 135.238281 C 62.222656 134.648438 61.902344 134.042969 61.613281 133.421875 C 61.324219 132.800781 61.066406 132.167969 60.835938 131.523438 C 60.609375 130.875 60.414062 130.21875 60.253906 129.554688 C 60.089844 128.890625 59.960938 128.214844 59.863281 127.539062 C 59.765625 126.859375 59.703125 126.179688 59.671875 125.492188 C 59.644531 124.808594 59.648438 124.125 59.683594 123.441406 C 59.722656 122.757812 59.792969 122.074219 59.894531 121.398438 C 60 120.722656 60.136719 120.050781 60.308594 119.386719 C 60.476562 118.722656 60.679688 118.070312 60.914062 117.425781 C 61.148438 116.78125 61.414062 116.152344 61.710938 115.53125 C 62.007812 114.914062 62.332031 114.3125 62.6875 113.726562 C 63.042969 113.140625 63.425781 112.574219 63.839844 112.027344 C 64.25 111.476562 64.6875 110.953125 65.148438 110.445312 C 65.613281 109.941406 66.097656 109.460938 66.609375 109.003906 C 67.121094 108.542969 67.652344 108.113281 68.203125 107.707031 C 68.757812 107.304688 69.328125 106.925781 69.917969 106.578125 C 70.507812 106.226562 71.113281 105.910156 71.734375 105.617188 C 72.355469 105.328125 72.988281 105.070312 73.632812 104.84375 C 74.28125 104.617188 74.9375 104.421875 75.601562 104.257812 C 76.269531 104.09375 76.941406 103.964844 77.617188 103.867188 C 78.296875 103.773438 78.976562 103.707031 79.664062 103.679688 C 80.347656 103.648438 81.03125 103.652344 81.714844 103.691406 C 82.402344 103.726562 83.082031 103.796875 83.757812 103.902344 C 84.4375 104.007812 85.105469 104.144531 85.769531 104.3125 C 86.433594 104.484375 87.085938 104.6875 87.730469 104.921875 C 88.375 105.15625 89.007812 105.421875 89.625 105.714844 C 90.242188 106.011719 90.84375 106.339844 91.429688 106.695312 C 92.015625 107.050781 92.582031 107.433594 93.132812 107.84375 C 93.679688 108.253906 94.207031 108.691406 94.710938 109.15625 C 95.214844 109.617188 95.699219 110.105469 96.15625 110.613281 C 96.613281 111.125 97.042969 111.65625 97.449219 112.210938 C 97.855469 112.761719 98.230469 113.332031 98.582031 113.921875 C 98.929688 114.511719 99.25 115.117188 99.539062 115.738281 C 99.828125 116.359375 100.085938 116.992188 100.3125 117.640625 C 100.542969 118.285156 100.734375 118.941406 100.898438 119.609375 C 101.0625 120.273438 101.191406 120.945312 101.289062 121.625 C 101.386719 122.300781 101.449219 122.984375 101.480469 123.667969 C 101.507812 124.351562 101.503906 125.039062 101.46875 125.722656 C 101.429688 126.40625 101.359375 127.085938 101.253906 127.765625 C 101.152344 128.441406 101.015625 129.113281 100.84375 129.777344 C 100.671875 130.441406 100.472656 131.09375 100.238281 131.738281 Z M 100.238281 131.738281 " fill-opacity="1" fill-rule="nonzero"/></g></g></g><g clip-path="url(#c4656aa0b6)"><g clip-path="url(#df54d8755b)"><g clip-path="url(#8220ff95e5)"><path fill="#ffffff" d="M 316.492188 163.414062 C 327.332031 167.363281 339.363281 161.75 343.308594 150.910156 C 347.253906 140.070312 341.644531 128.039062 330.804688 124.09375 C 319.964844 120.148438 307.933594 125.757812 303.988281 136.597656 C 300.042969 147.441406 305.652344 159.46875 316.492188 163.414062 Z M 316.492188 163.414062 " fill-opacity="1" fill-rule="nonzero"/></g></g></g><g clip-path="url(#f66debe15d)"><g clip-path="url(#fe400d5185)"><g clip-path="url(#0c8a7507fc)"><path fill="#ffffff" d="M 290.847656 225.09375 C 295.5 222.976562 299.949219 220.769531 304.160156 218.476562 C 333.535156 202.472656 348.398438 183.894531 346.015625 166.15625 C 345.925781 165.503906 345.8125 164.851562 345.679688 164.207031 C 343.207031 166.859375 340.289062 169.019531 337.09375 170.617188 C 336.550781 183.363281 323.21875 197.6875 299.789062 210.449219 C 295.671875 212.695312 291.3125 214.855469 286.746094 216.921875 C 278.257812 200.75 267.25 183.96875 254.28125 167.429688 C 257.269531 154.835938 259.386719 142.585938 260.585938 130.988281 C 272.898438 132.171875 284.300781 134.125 294.40625 136.824219 C 294.671875 135.703125 294.996094 134.582031 295.402344 133.472656 C 296.066406 131.644531 296.902344 129.921875 297.867188 128.308594 C 286.980469 125.332031 274.65625 123.1875 261.34375 121.914062 C 261.664062 116.792969 261.792969 111.820312 261.714844 107.035156 C 261.222656 76.605469 252.480469 56.757812 237.09375 51.160156 C 221.707031 45.558594 202.253906 55.140625 182.316406 78.136719 C 179.191406 81.738281 176.109375 85.617188 173.070312 89.726562 C 164.09375 83.558594 155.207031 78.230469 146.574219 73.882812 C 116.703125 58.835938 92.964844 57.1875 79.734375 69.238281 C 74.628906 73.894531 71.394531 80.335938 70.078125 88.316406 C 69.546875 91.527344 69.328125 94.992188 69.421875 98.6875 C 72.324219 97.625 75.394531 97.003906 78.527344 96.875 C 78.53125 92.761719 79.011719 88.667969 80.253906 84.964844 C 81.402344 81.535156 83.207031 78.441406 85.890625 75.992188 C 95.972656 66.804688 116.59375 69.011719 142.464844 82.042969 C 150.707031 86.195312 159.203125 91.289062 167.800781 97.1875 C 161.257812 106.847656 155 117.601562 149.191406 129.183594 C 137.816406 131.578125 126.859375 134.417969 116.472656 137.648438 L 92.515625 146.21875 L 84.121094 149.84375 C 79.464844 151.960938 75.011719 154.171875 70.796875 156.464844 C 41.425781 172.46875 26.5625 191.046875 28.945312 208.785156 C 30.878906 223.167969 43.902344 235.09375 66.121094 243.179688 C 71.296875 245.0625 76.976562 246.742188 83.128906 248.191406 C 92.535156 250.410156 102.765625 252.039062 113.609375 253.085938 C 113.5 254.847656 113.417969 256.589844 113.355469 258.316406 C 116.335938 257.6875 119.425781 257.507812 122.535156 257.820312 C 122.589844 256.5 122.65625 255.167969 122.742188 253.816406 C 135.617188 254.648438 149.234375 254.695312 163.28125 253.953125 C 173.589844 263.574219 184.074219 272.308594 194.496094 279.960938 C 174.402344 307.074219 154.164062 319.992188 140.992188 315.195312 C 139.347656 314.597656 137.796875 313.726562 136.347656 312.597656 C 133.597656 314.457031 130.554688 315.851562 127.351562 316.722656 C 130.40625 319.980469 133.917969 322.34375 137.867188 323.78125 C 153.253906 329.382812 172.707031 319.800781 192.644531 296.804688 C 195.765625 293.203125 198.851562 289.328125 201.886719 285.214844 C 210.867188 291.382812 219.753906 296.710938 228.386719 301.058594 C 234.03125 303.90625 239.457031 306.269531 244.636719 308.152344 C 266.855469 316.242188 284.496094 315.476562 295.222656 305.703125 C 308.453125 293.648438 309.007812 269.859375 296.792969 238.722656 C 295.039062 234.257812 293.050781 229.707031 290.847656 225.09375 Z M 144.167969 139.640625 C 140.0625 148.574219 136.21875 157.90625 132.714844 167.539062 C 129.207031 177.179688 126.148438 186.78125 123.554688 196.234375 C 112.996094 182.214844 103.878906 168.050781 96.648438 154.398438 C 110.960938 148.570312 127.011719 143.589844 144.167969 139.640625 Z M 85.226562 239.296875 C 57.03125 232.648438 39.820312 221.085938 38.003906 207.566406 C 36.183594 194.050781 49.730469 178.347656 75.171875 164.492188 C 79.292969 162.246094 83.65625 160.082031 88.226562 158.011719 C 96.726562 174.167969 107.773438 191 120.679688 207.480469 C 117.675781 220.109375 115.550781 232.371094 114.359375 243.984375 C 103.988281 242.976562 94.210938 241.414062 85.226562 239.296875 Z M 251.402344 178.671875 C 262.011719 192.730469 271.109375 206.867188 278.332031 220.539062 C 264.011719 226.367188 247.957031 231.351562 230.792969 235.300781 C 234.898438 226.367188 238.738281 217.035156 242.246094 207.402344 C 245.75 197.773438 248.808594 188.15625 251.402344 178.671875 Z M 247 158.425781 C 243.070312 153.703125 238.992188 149.011719 234.765625 144.378906 C 230.183594 139.347656 225.519531 134.480469 220.800781 129.785156 C 231.421875 129.476562 241.730469 129.640625 251.550781 130.265625 C 250.636719 139.066406 249.132812 148.492188 247 158.425781 Z M 233.96875 59.746094 C 247.148438 64.542969 254.351562 87.46875 252.300781 121.1875 C 239.425781 120.355469 225.769531 120.289062 211.703125 121.015625 C 201.386719 111.382812 190.894531 102.640625 180.464844 94.980469 C 200.558594 67.867188 220.796875 54.953125 233.96875 59.746094 Z M 175.191406 102.4375 C 183.148438 108.285156 191.15625 114.792969 199.097656 121.871094 C 192.433594 122.429688 185.710938 123.15625 178.957031 124.066406 C 172.742188 124.902344 166.601562 125.871094 160.554688 126.960938 C 165.3125 117.96875 170.226562 109.773438 175.191406 102.4375 Z M 123.511719 244.71875 C 124.457031 235.734375 125.980469 226.296875 128.042969 216.605469 C 131.957031 221.3125 136.011719 225.972656 140.191406 230.5625 C 144.789062 235.605469 149.464844 240.484375 154.191406 245.191406 C 143.605469 245.503906 133.332031 245.34375 123.511719 244.71875 Z M 199.769531 272.503906 C 191.816406 266.660156 183.816406 260.15625 175.878906 253.082031 C 182.523438 252.519531 189.242188 251.785156 196.003906 250.875 C 202.21875 250.042969 208.359375 249.070312 214.40625 247.980469 C 209.648438 256.972656 204.734375 265.167969 199.769531 272.503906 Z M 219.609375 237.695312 C 211.515625 239.300781 203.226562 240.6875 194.785156 241.820312 C 185.296875 243.097656 175.898438 244.019531 166.683594 244.605469 C 160 238.234375 153.398438 231.484375 146.949219 224.410156 C 141.257812 218.164062 135.8125 211.789062 130.648438 205.355469 C 133.515625 193.921875 137.082031 182.253906 141.300781 170.664062 C 145.667969 158.667969 150.394531 147.507812 155.351562 137.246094 C 163.445312 135.640625 171.734375 134.253906 180.171875 133.121094 C 189.652344 131.847656 199.058594 130.933594 208.292969 130.355469 C 214.972656 136.722656 221.570312 143.460938 228.011719 150.535156 C 233.746094 156.828125 239.210938 163.214844 244.375 169.648438 C 241.574219 180.695312 238.023438 192.285156 233.660156 204.277344 C 229.292969 216.273438 224.5625 227.433594 219.609375 237.695312 Z M 289.070312 298.949219 C 278.988281 308.136719 258.367188 305.929688 232.496094 292.898438 C 224.253906 288.746094 215.753906 283.65625 207.160156 277.753906 C 213.703125 268.09375 219.960938 257.339844 225.769531 245.761719 C 246.335938 241.429688 265.558594 235.648438 282.457031 228.71875 C 284.621094 233.238281 286.574219 237.691406 288.285156 242.058594 C 298.863281 269.027344 299.152344 289.761719 289.070312 298.949219 Z M 289.070312 298.949219 " fill-opacity="1" fill-rule="nonzero"/></g></g></g></svg>